<svg xmlns="http://www.w3.org/2000/svg" viewBox="0 0 32 32">
  <!-- Main Rock Body -->
  <path d="M 12 8 h 8 v 1 h 2 v 1 h 1 v 2 h 1 v 4 h -1 v 2 h -1 v 2 h -2 v 1 h -8 v -1 h -2 v -2 h -1 v -2 h -1 v -4 h 1 v -2 h 1 v -1 h 2 z" fill="#808080"/>
  
  <!-- Highlights -->
  <path d="M 13 9 h 6 v 1 h 2 v 1 h 1 v 2 h 1 v 2 h -1 v -2 h -1 v -2 h -1 v -1 h -2 v -1 z" fill="#A0A0A0"/>
  
  <!-- Shadow -->
  <path d="M 12 20 h 8 v -1 h 2 v -2 h 1 v -2 h 1 v -2 h -1 v 2 h -1 v 2 h -2 v 1 h -8 z" fill="#606060"/>
  
  <!-- Angry Eyebrows -->
  <path d="M 12 11 h 2 v 1 h 1 v 1 h -2 v -1 h -1 z" fill="#000000"/>
  <path d="M 20 11 h -2 v 1 h -1 v 1 h 2 v -1 h 1 z" fill="#000000"/>
  
  <!-- Angry Eyes -->
  <path d="M 14 14 h 2 v 2 h -2 z M 18 14 h 2 v 2 h -2 z" fill="#000000"/>
  
  <!-- Angry Mouth -->
  <path d="M 14 18 h 2 v -1 h 2 v 1 h 2 v 1 h -2 v -1 h -2 v 1 h -2 z" fill="#000000"/>
  
  <!-- Red Tint of Anger -->
  <path d="M 14 12 h 1 v 1 h -1 z M 19 12 h 1 v 1 h -1 z" fill="#FF0000" fill-opacity="0.3"/>
  
  <!-- Shine Detail -->
  <path d="M 14 10 h 1 v 1 h -1 z" fill="#FFFFFF"/>
</svg>