<svg xmlns="http://www.w3.org/2000/svg" viewBox="0 0 32 32">
  <!-- Background Grid (optional, comment out in final version) -->
  <defs>
    <pattern id="grid" width="1" height="1" patternUnits="userSpaceOnUse">
      <path d="M 1 0 L 0 0 0 1" fill="none" stroke="gray" stroke-width="0.1"/>
    </pattern>
  </defs>
  
  <!-- Main Rock Body -->
  <path d="M 12 8 h 8 v 1 h 2 v 1 h 1 v 2 h 1 v 4 h -1 v 2 h -1 v 2 h -2 v 1 h -8 v -1 h -2 v -2 h -1 v -2 h -1 v -4 h 1 v -2 h 1 v -1 h 2 z" fill="#808080"/>
  
  <!-- Highlights -->
  <path d="M 13 9 h 6 v 1 h 2 v 1 h 1 v 2 h 1 v 2 h -1 v -2 h -1 v -2 h -1 v -1 h -2 v -1 z" fill="#A0A0A0"/>
  
  <!-- Shadow -->
  <path d="M 12 20 h 8 v -1 h 2 v -2 h 1 v -2 h 1 v -2 h -1 v 2 h -1 v 2 h -2 v 1 h -8 z" fill="#606060"/>
  
  <!-- Happy Eyes -->
  <path d="M 14 13 h 2 v 2 h -2 z M 18 13 h 2 v 2 h -2 z" fill="#000000"/>
  
  <!-- Happy Mouth -->
  <path d="M 15 17 h 4 v 1 h -4 z" fill="#000000"/>
  
  <!-- Shine Detail -->
  <path d="M 14 11 h 1 v 1 h -1 z" fill="#FFFFFF"/>
</svg>